<?xml version="1.0" encoding="utf-8"?>
<!-- Generator: Adobe Illustrator 23.0.0, SVG Export Plug-In . SVG Version: 6.00 Build 0)  -->
<svg version="1.1" id="Layer_1" xmlns="http://www.w3.org/2000/svg" xmlns:xlink="http://www.w3.org/1999/xlink" x="0px" y="0px"
	 viewBox="0 0 77.6 56" style="enable-background:new 0 0 77.6 56;" xml:space="preserve">
<style type="text/css">
	.st0{fill:#403958;}
	.st1{fill:url(#SVGID_1_);}
</style>
<g>
	<path class="st0" d="M3.3,45.6v5.2v1.9v2c0,0.2,0.1,0.3,0.2,0.4c0.1,0.1,0.3,0.2,0.5,0.2h0.9c0.3,0,0.6-0.1,0.8-0.2
		c0.3-0.1,0.5-0.3,0.7-0.5c0.2-0.2,0.3-0.4,0.5-0.7C6.9,53.8,7,53.5,7,53.2h0.1v2.2H5H4.4H0.9H0v-0.1c0.1,0,0.2,0,0.3-0.1
		c0.1-0.1,0.1-0.2,0.1-0.3v-2.5v-5.7v-0.8v-2.5c0-0.1,0-0.2-0.1-0.3C0.2,43,0.1,43,0,43v-0.1h0.9h1.9h0.7h0.3V43
		c-0.1,0-0.2,0-0.3,0.1s-0.1,0.2-0.1,0.3v1.7V45.6z"/>
	<path class="st0" d="M15.6,54.9c0,0.1,0,0.2,0.1,0.3s0.2,0.1,0.3,0.1v0.1h-2c-0.4,0-0.7-0.1-0.9-0.2c-0.2-0.1-0.3-0.4-0.4-0.7
		c-0.2,0.3-0.5,0.5-0.9,0.6s-0.7,0.3-1.1,0.3c-0.4,0-0.7,0-1.1-0.1c-0.3-0.1-0.6-0.2-0.9-0.5c-0.2-0.2-0.4-0.5-0.6-0.8
		c-0.1-0.3-0.2-0.7-0.1-1.1c0-0.4,0.1-0.7,0.3-0.9s0.4-0.5,0.6-0.7c0.2-0.2,0.5-0.3,0.8-0.5c0.3-0.1,0.6-0.2,0.9-0.3
		c0.6-0.2,1.1-0.4,1.4-0.6c0.3-0.2,0.5-0.4,0.6-0.5v-0.9c0-0.7-0.1-1.2-0.2-1.5s-0.4-0.5-0.9-0.4c-0.6,0.1-0.9,0.3-0.9,0.6
		c0,0.2,0,0.3,0.1,0.4c0.1,0.1,0.2,0.2,0.3,0.3c0.1,0.1,0.2,0.3,0.3,0.5c0.1,0.2,0.1,0.4,0.1,0.6c0,0.4-0.1,0.7-0.4,1
		c-0.3,0.3-0.6,0.4-1,0.4c-0.4,0-0.7-0.1-1-0.4c-0.3-0.3-0.4-0.6-0.4-1c0-0.3,0.1-0.7,0.3-1c0.2-0.3,0.4-0.6,0.7-0.8
		c0.3-0.2,0.7-0.4,1.1-0.5c0.4-0.1,0.9-0.2,1.4-0.2s0.9,0.1,1.4,0.2c0.4,0.1,0.8,0.3,1.1,0.5c0.3,0.2,0.6,0.5,0.7,0.8
		c0.2,0.3,0.3,0.6,0.3,1v5.1v0.1v0.5V54.9z M12.5,54.6c0,0,0.1-0.1,0.1-0.1c0,0,0.1-0.1,0.1-0.1c0-0.1,0-0.2,0-0.3
		c0-0.1,0-0.2,0-0.3v-0.7v-3.4c-0.2,0.2-0.4,0.4-0.6,0.5c-0.2,0.2-0.4,0.3-0.6,0.5s-0.4,0.5-0.5,0.8c-0.1,0.3-0.2,0.8-0.2,1.4
		c0,0.5,0.1,0.8,0.2,1.1c0.1,0.3,0.3,0.4,0.4,0.5c0.2,0.1,0.4,0.1,0.5,0.1C12.2,54.8,12.4,54.7,12.5,54.6z"/>
	<path class="st0" d="M19.3,47.4c0,0.3,0.1,0.6,0.3,0.8s0.5,0.5,0.7,0.8s0.6,0.5,0.9,0.8c0.3,0.3,0.6,0.6,0.9,0.9s0.5,0.7,0.7,1
		s0.3,0.8,0.3,1.2c0,0.4-0.1,0.7-0.2,1.1c-0.2,0.3-0.4,0.6-0.7,0.8s-0.6,0.4-1,0.5c-0.4,0.1-0.8,0.2-1.3,0.2c-0.4,0-0.8-0.1-1.2-0.2
		s-0.7-0.3-1-0.5c-0.3-0.2-0.5-0.5-0.7-0.8c-0.2-0.3-0.2-0.6-0.2-1c0-0.4,0.1-0.7,0.4-1s0.6-0.4,1-0.4s0.7,0.1,1,0.4
		c0.3,0.3,0.4,0.6,0.4,1c0,0.3-0.1,0.6-0.2,0.8c-0.1,0.1-0.1,0.2-0.2,0.2c-0.1,0.1-0.1,0.1-0.2,0.2C19,54.3,19,54.5,19,54.6
		c0,0.1,0,0.3,0.1,0.4c0.2,0.3,0.5,0.4,1,0.4c0.1,0,0.3,0,0.5,0c0.2,0,0.3-0.1,0.4-0.1c0.1-0.1,0.2-0.2,0.3-0.3s0.1-0.3,0.1-0.6
		c0-0.4-0.1-0.7-0.3-1.1c-0.2-0.3-0.5-0.7-0.8-1c-0.3-0.3-0.6-0.6-1-0.9c-0.4-0.3-0.7-0.6-1-0.9s-0.6-0.6-0.8-0.9
		c-0.2-0.3-0.3-0.7-0.3-1c0-0.3,0.1-0.6,0.2-0.8s0.4-0.5,0.6-0.6s0.6-0.3,1-0.4c0.4-0.1,0.7-0.1,1.2-0.1c0.3,0,0.5,0,0.7,0.1
		s0.4,0.1,0.6,0.1c0.2,0,0.4,0.1,0.6,0.1s0.5,0,0.7-0.1v2.2h-0.1c0-0.2-0.1-0.5-0.3-0.7c-0.1-0.3-0.3-0.5-0.5-0.7
		c-0.2-0.2-0.5-0.4-0.8-0.5c-0.3-0.1-0.7-0.2-1-0.2c-0.3,0-0.5,0.1-0.7,0.2S19.2,47.2,19.3,47.4z"/>
	<path class="st0" d="M37.4,55c0.2,0.2,0.4,0.3,0.6,0.3c0.2,0,0.4,0,0.6-0.2l0.1,0.1c-0.1,0.1-0.2,0.2-0.3,0.3
		c-0.1,0.1-0.3,0.2-0.5,0.3c-0.2,0.1-0.5,0.2-0.7,0.2C36.8,56,36.5,56,36.2,56c-0.8,0-1.4-0.2-1.9-0.5c-0.5-0.3-0.8-0.7-1.1-1.1
		s-0.5-0.9-0.6-1.5c-0.1-0.5-0.3-1-0.4-1.5c-0.1-0.5-0.3-0.8-0.5-1.2c-0.2-0.3-0.5-0.5-0.9-0.5v1v1.9V54v0.9c0,0.1,0,0.2,0.1,0.3
		s0.2,0.1,0.3,0.1v0.1H30h-2.5v-0.1c0.1,0,0.2,0,0.3-0.1c0.1-0.1,0.1-0.2,0.1-0.3V54v-1.6v-1.7v-6.9v-0.5c0-0.1,0-0.2-0.1-0.3
		C27.7,43,27.6,43,27.5,43v-0.1h1.2h2.1h1.9c1.3,0,2.3,0.3,3,0.9c0.7,0.6,1.1,1.5,1.1,2.5c0,0.9-0.2,1.6-0.7,2.2
		c-0.5,0.6-1.2,1-2.1,1.1c0.4,0.1,0.8,0.4,1.1,0.8c0.2,0.3,0.4,0.6,0.6,1s0.4,0.9,0.6,1.3s0.4,0.9,0.6,1.3
		C36.9,54.4,37.1,54.7,37.4,55z M30.8,43.9v0.6v1.1v4h1.1c0.2,0,0.4-0.1,0.7-0.2c0.2-0.1,0.5-0.3,0.7-0.6c0.2-0.3,0.4-0.6,0.5-1
		c0.1-0.4,0.2-1,0.2-1.6c0-0.6-0.1-1.2-0.2-1.6c-0.1-0.4-0.3-0.8-0.4-1c-0.2-0.3-0.4-0.5-0.6-0.6C32.4,43,32.2,43,32,43h-0.1h-0.5
		h-0.2c-0.1,0-0.2,0-0.3,0.1s-0.1,0.2-0.1,0.3V43.9z"/>
	<path class="st0" d="M46.9,55.2c0.1,0.1,0.2,0.1,0.3,0.1v0.1h-2c-0.4,0-0.6-0.1-0.8-0.2c-0.2-0.1-0.3-0.3-0.4-0.6
		c-0.4,0.2-0.8,0.4-1.3,0.6s-0.9,0.2-1.3,0.2c-0.3,0-0.6,0-0.9-0.1c-0.3-0.1-0.5-0.2-0.7-0.4c-0.2-0.2-0.4-0.4-0.5-0.7
		c-0.1-0.3-0.2-0.7-0.2-1.1v-2.3V50v-2.9c0-0.1,0-0.2-0.1-0.3s-0.2-0.1-0.3-0.1v-0.1h2c0.5,0,0.8,0.1,1,0.4c0.2,0.2,0.3,0.6,0.3,1.2
		V50v1.1v2.4c0,0.4,0.1,0.7,0.2,0.9c0.1,0.2,0.3,0.3,0.5,0.4c0.2,0,0.4,0,0.6,0c0.2-0.1,0.4-0.2,0.6-0.3c0-0.2-0.1-0.4-0.1-0.6v-6.7
		c0-0.1,0-0.2-0.1-0.3c-0.1-0.1-0.2-0.1-0.3-0.1v-0.1h2c0.5,0,0.8,0.1,1,0.4c0.2,0.2,0.3,0.6,0.3,1.2V50v2v2.9
		C46.8,55,46.9,55.1,46.9,55.2z"/>
	<path class="st0" d="M53.6,46.6c0.5,0,0.9,0.1,1.3,0.3c0.4,0.2,0.7,0.5,1,0.9c0.3,0.4,0.5,0.8,0.7,1.4s0.3,1.2,0.3,1.8
		c0,0.7-0.1,1.3-0.3,1.9c-0.2,0.6-0.4,1-0.8,1.4c-0.3,0.4-0.7,0.7-1.2,0.9c-0.5,0.2-0.9,0.3-1.5,0.3c-0.4,0-0.8-0.1-1.1-0.3
		c-0.3-0.2-0.6-0.4-0.8-0.7c-0.1,0.3-0.2,0.6-0.4,0.8c-0.2,0.2-0.5,0.2-0.9,0.2h-2v-0.1c0.1,0,0.2,0,0.3-0.1s0.1-0.2,0.1-0.3v-0.6
		v-1.6v-5.9v-1.3v-2.2c0-0.1,0-0.2-0.1-0.3S48.3,43,48.2,43v-0.1h2c0.5,0,0.8,0.1,1,0.4c0.2,0.2,0.3,0.6,0.3,1.2v1.1v1.2v0.6
		c0.2-0.1,0.5-0.3,0.9-0.5C52.7,46.7,53.1,46.6,53.6,46.6z M52.5,55.1c0.5,0.1,0.9-0.2,1.1-0.9c0.3-0.7,0.4-1.7,0.4-3.1
		c0-0.7-0.1-1.3-0.1-1.8c-0.1-0.5-0.2-0.9-0.3-1.2c-0.1-0.3-0.3-0.5-0.5-0.7c-0.2-0.1-0.4-0.2-0.6-0.2c-0.2,0-0.4,0-0.6,0.1
		c-0.2,0.1-0.3,0.1-0.5,0.2v5.3v1.1c0,0.1,0,0.1,0,0.2c0,0.1,0,0.1,0,0.2c0.2,0.2,0.3,0.4,0.5,0.5C52.1,55,52.3,55.1,52.5,55.1z"/>
	<path class="st0" d="M58.3,49.3v-2.1c0-0.1,0-0.2-0.1-0.3s-0.2-0.1-0.3-0.1v-0.1h2h1.5h0.3v0.1c-0.1,0-0.2,0-0.3,0.1
		s-0.1,0.2-0.1,0.3v2.1v3.5v2.2c0,0.1,0,0.2,0.1,0.3s0.2,0.1,0.3,0.1v0.1h-0.3h-1.5h-2v-0.1c0.1,0,0.2,0,0.3-0.1s0.1-0.2,0.1-0.3
		v-2.2V49.3z M61.1,44.3c0,0.4-0.1,0.7-0.4,1c-0.3,0.3-0.6,0.4-1,0.4c-0.4,0-0.7-0.1-1-0.4s-0.4-0.6-0.4-1c0-0.4,0.1-0.7,0.4-1
		c0.3-0.3,0.6-0.4,1-0.4c0.4,0,0.7,0.1,1,0.4C61,43.6,61.1,43.9,61.1,44.3z"/>
	<path class="st0" d="M69.9,54.9c0,0.1,0,0.2,0.1,0.3s0.2,0.1,0.3,0.1v0.1h-2c-0.4,0-0.7-0.1-0.9-0.2c-0.2-0.1-0.3-0.4-0.4-0.7
		c-0.2,0.3-0.5,0.5-0.9,0.6c-0.3,0.2-0.7,0.3-1.1,0.3c-0.4,0-0.7,0-1.1-0.1c-0.3-0.1-0.6-0.2-0.9-0.5c-0.2-0.2-0.4-0.5-0.6-0.8
		c-0.1-0.3-0.2-0.7-0.1-1.1c0-0.4,0.1-0.7,0.3-0.9s0.4-0.5,0.6-0.7c0.2-0.2,0.5-0.3,0.8-0.5s0.6-0.2,0.9-0.3
		c0.6-0.2,1.1-0.4,1.4-0.6c0.3-0.2,0.5-0.4,0.6-0.5v-0.9c0-0.7-0.1-1.2-0.2-1.5c-0.1-0.3-0.4-0.5-0.9-0.4c-0.6,0.1-0.9,0.3-0.9,0.6
		c0,0.2,0,0.3,0.1,0.4c0.1,0.1,0.2,0.2,0.3,0.3c0.1,0.1,0.2,0.3,0.3,0.5s0.1,0.4,0.1,0.6c0,0.4-0.1,0.7-0.4,1
		c-0.3,0.3-0.6,0.4-1,0.4c-0.4,0-0.7-0.1-1-0.4c-0.3-0.3-0.4-0.6-0.4-1c0-0.3,0.1-0.7,0.3-1c0.2-0.3,0.4-0.6,0.7-0.8
		c0.3-0.2,0.7-0.4,1.1-0.5s0.9-0.2,1.4-0.2s0.9,0.1,1.4,0.2c0.4,0.1,0.8,0.3,1.1,0.5c0.3,0.2,0.6,0.5,0.7,0.8c0.2,0.3,0.3,0.6,0.3,1
		v5.1v0.1v0.5V54.9z M66.9,54.6c0,0,0.1-0.1,0.1-0.1c0,0,0.1-0.1,0.1-0.1c0-0.1,0-0.2,0-0.3c0-0.1,0-0.2,0-0.3v-0.7v-3.4
		c-0.2,0.2-0.4,0.4-0.6,0.5c-0.2,0.2-0.4,0.3-0.6,0.5c-0.2,0.2-0.4,0.5-0.5,0.8c-0.1,0.3-0.2,0.8-0.2,1.4c0,0.5,0.1,0.8,0.2,1.1
		c0.1,0.3,0.3,0.4,0.4,0.5c0.2,0.1,0.4,0.1,0.5,0.1C66.6,54.8,66.8,54.7,66.9,54.6z"/>
	<path class="st0" d="M73.7,47.4c0,0.3,0.1,0.6,0.3,0.8c0.2,0.3,0.5,0.5,0.7,0.8c0.3,0.3,0.6,0.5,0.9,0.8c0.3,0.3,0.6,0.6,0.9,0.9
		s0.5,0.7,0.7,1s0.3,0.8,0.3,1.2c0,0.4-0.1,0.7-0.2,1.1c-0.2,0.3-0.4,0.6-0.7,0.8s-0.6,0.4-1,0.5c-0.4,0.1-0.8,0.2-1.3,0.2
		c-0.4,0-0.8-0.1-1.2-0.2c-0.4-0.1-0.7-0.3-1-0.5c-0.3-0.2-0.5-0.5-0.7-0.8c-0.2-0.3-0.2-0.6-0.2-1c0-0.4,0.1-0.7,0.4-1
		c0.3-0.3,0.6-0.4,1-0.4s0.7,0.1,1,0.4s0.4,0.6,0.4,1c0,0.3-0.1,0.6-0.2,0.8c-0.1,0.1-0.1,0.2-0.2,0.2c-0.1,0.1-0.1,0.1-0.2,0.2
		c-0.1,0.1-0.2,0.3-0.2,0.4s0,0.3,0.1,0.4c0.2,0.3,0.5,0.4,1,0.4c0.1,0,0.3,0,0.5,0c0.2,0,0.3-0.1,0.4-0.1c0.1-0.1,0.2-0.2,0.3-0.3
		c0.1-0.1,0.1-0.3,0.1-0.6c0-0.4-0.1-0.7-0.3-1.1c-0.2-0.3-0.5-0.7-0.8-1c-0.3-0.3-0.6-0.6-1-0.9c-0.4-0.3-0.7-0.6-1-0.9
		s-0.6-0.6-0.8-0.9c-0.2-0.3-0.3-0.7-0.3-1c0-0.3,0.1-0.6,0.2-0.8c0.2-0.2,0.4-0.5,0.6-0.6s0.6-0.3,1-0.4c0.4-0.1,0.7-0.1,1.2-0.1
		c0.3,0,0.5,0,0.7,0.1c0.2,0,0.4,0.1,0.6,0.1c0.2,0,0.4,0.1,0.6,0.1s0.5,0,0.7-0.1v2.2h-0.1c0-0.2-0.1-0.5-0.3-0.7
		c-0.1-0.3-0.3-0.5-0.5-0.7c-0.2-0.2-0.5-0.4-0.8-0.5c-0.3-0.1-0.7-0.2-1-0.2c-0.3,0-0.5,0.1-0.7,0.2C73.7,47,73.6,47.2,73.7,47.4z"
		/>
</g>
<radialGradient id="SVGID_1_" cx="60.2156" cy="29.647" r="41.5659" gradientUnits="userSpaceOnUse">
	<stop  offset="0.1774" style="stop-color:#D0006C"/>
	<stop  offset="0.3899" style="stop-color:#F0003C"/>
	<stop  offset="0.579" style="stop-color:#FF3400"/>
	<stop  offset="0.8149" style="stop-color:#FF8000"/>
	<stop  offset="1" style="stop-color:#F2EC00"/>
</radialGradient>
<path class="st1" d="M38.8,0c-8.9,0-16.1,7.2-16.1,16.1c0,7.4,5.1,13.7,11.9,15.5c2.2-2,2.9-5.5,2.4-9c-0.6-4.7-0.7-8.8,4.8-11.2
	c5.5-2.4,4.7-3.8,4.4-4.8c0.1,0.1,0.2,0.2,0.4,0.2c1.6,1.1,2.9,3.7,2.9,5.6c0,0.9-0.9,2.3-0.7,3.1c0.2,0.6,0.7,1.2,1,1.8
	c0.2,0.3,0.4,0.6,0.6,0.8c0.3,0.3,0.7,0.6,0.6,1c-0.1,0.5-0.9,0.9-0.9,0.9s-0.6,0.1-0.7,0.1c-0.8,0.3,0.3,1.1,0.1,1.5
	c-0.1,0.1-0.3,0.5-0.8,0.8c0,0,0.3,0.6,0.3,0.7c0,0.2-0.1,0.3-0.2,0.4c-0.2,0.2-0.7,0.3-0.7,0.6c0,0.2,0.6,1.4-0.2,2
	c-1.4,1-3.5-0.1-5-0.3c-0.9-0.2-1.2,0.6-1.6,1.3c-0.4,0.7-0.8,1.5-1.1,2.3c-0.2,0.6-0.4,1.6-0.4,2.6c8.4-0.5,15.1-7.5,15.1-16.1
	C54.9,7.2,47.7,0,38.8,0z"/>
</svg>
